<?xml version="1.0" encoding="UTF-8"?>
<svg width="600px" height="600px" viewBox="0 0 600 600" version="1.1" xmlns="http://www.w3.org/2000/svg" xmlns:xlink="http://www.w3.org/1999/xlink">
    <!-- Generator: Sketch 47.1 (45422) - http://www.bohemiancoding.com/sketch -->
    <title>Logs Icon</title>
    <desc>Created with Sketch.</desc>
    <defs></defs>
    <g id="Page-1" stroke="none" stroke-width="1" fill="none" fill-rule="evenodd">
        <g id="Logs-Icon">
            <g>
                <circle id="Oval" fill="#F7F0DC" cx="300" cy="300" r="300"></circle>
                <g id="Log-Illustration" transform="translate(70.000000, 157.000000)">
                    <g id="Fills">
                        <path d="M450.460628,266.759756 L427.893145,266.759756 C444.499724,232.184103 445.232395,192.105635 429.90061,156.947629 C425.681172,147.118974 417.527006,139.508689 407.422797,135.96908 C414.477113,121.459675 419.010929,105.858407 420.830576,89.831707 C421.106643,87.1060541 421.354146,85.5988062 421.474865,83.920939 C422.743302,60.3751801 417.854977,36.9050087 407.290391,15.817444 C402.384809,6.04381734 392.339091,-0.0913307248 381.392522,0.00102837984 L85.8492065,0.188711126 C84.5476122,0.191334199 83.2605161,0.461743354 82.068181,0.983075968 C80.1943387,0.470012067 78.261546,0.202975999 76.3186108,0.188711126 C51.2491412,0.207765212 38.1611229,38.5480158 38.1802016,76.4241089 C37.8770013,93.8271416 40.9948189,111.120576 47.3570775,127.325004 C48.3236066,129.573386 49.3437471,131.506994 50.3696111,133.381726 L47.7195736,133.381726 C46.6021273,133.506232 45.5170656,133.834579 44.5183511,134.350436 C42.4568273,133.724346 40.3157927,133.397905 38.1611229,133.381154 C24.0717166,134.785452 12.4297058,144.948413 9.15265586,158.696603 C2.80277335,174.909726 -0.299166347,192.209883 0.022713739,209.616171 C-0.279656965,227.016104 2.83815296,244.306324 9.19958957,260.507729 C10.1306271,262.642536 11.1685491,264.729243 12.3094248,266.759946 L9.56208571,266.759946 C4.29363605,266.759946 0.022713739,271.025349 0.022713739,276.286989 C0.022713739,281.54863 4.29363605,285.814032 9.56208571,285.814032 L92.6263579,285.814032 C93.5576855,285.937081 94.4960705,285.999203 95.4355122,286 C95.6733605,286 98.5606104,285.937947 104.097262,285.813842 C104.300187,285.866145 207.05723,285.866145 412.368389,285.813842 L450.460628,285.813842 C455.729078,285.813842 460,281.548439 460,276.286799 C460,271.025158 455.729078,266.759756 450.460628,266.759756 Z" id="Path" fill="#8E705C"></path>
                        <path d="M83.9668976,253.194961 C82.0874683,248.561615 80.6207392,243.7718 79.583747,238.881151 L92.6212067,225.860541 C95.3488369,223.135922 96.1647723,219.038759 94.6886267,215.479135 C93.2124811,211.919512 89.7348773,209.598244 85.8770615,209.597498 L76.3458934,209.597498 C76.3726036,174.26684 88.6753408,152.621399 95.3973547,152.621399 C101.16612,155.157363 105.410976,160.2474 106.865015,166.372351 C112.173592,180.219876 114.764089,194.95834 114.495177,209.783656 C114.514256,244.408741 102.770145,265.779423 95.9462502,266.759756 L94.9013074,266.759756 C89.504188,263.980478 85.5332036,259.054233 83.9668976,253.194961 Z M87.7862714,32.9937498 C93.094848,46.8412743 95.6853454,61.5797387 95.4164334,76.4050548 C95.4355122,111.852324 83.0915649,133.567313 76.3567682,133.567313 C70.5880033,131.031348 66.3431474,125.941311 64.8891076,119.81636 C59.580531,105.968835 56.9900336,91.2303709 57.2589456,76.4050548 L66.7983175,76.2188964 C70.6562375,76.2183819 74.1340532,73.8971985 75.6103455,70.3375229 C77.0866378,66.7778473 76.2707389,62.6805459 73.5430351,59.955853 L60.542779,46.9723988 C61.0225987,35.7311246 66.8950446,25.4089691 76.3186108,19.2427971 C82.0873757,21.7787617 86.3322316,26.8687983 87.7862714,32.9937498 Z M38.1611229,152.43524 C43.8001534,154.904763 47.9694625,159.851728 49.4437197,165.82226 L40.9744745,174.280559 C38.246858,177.005319 37.4310701,181.102624 38.907443,184.662251 C40.3838159,188.221878 43.861668,190.542974 47.7195736,190.543412 L55.8452106,190.543412 C56.7519709,196.85197 57.2243247,203.215221 57.2589456,209.588352 C57.2780243,245.035621 44.934077,266.75061 38.1992804,266.75061 C32.4305154,264.214645 28.1856595,259.124608 26.7316197,252.999657 C21.4229718,239.155335 18.8324517,224.419847 19.1014577,209.597498 C18.8166872,194.777379 21.3944912,180.041331 26.6938438,166.195529 C28.0952897,160.042389 32.3568327,154.928703 38.1611229,152.43524 Z" id="Combined-Shape" fill="#C19579"></path>
                    </g>
                    <path d="M298,219.51385 C298,224.752906 302.309259,229 307.625,229 L365.375,228.9723 C370.690741,228.9723 375,224.725206 375,219.48615 C375,214.247094 370.690741,210 365.375,210 L307.625,210.0277 C302.309259,210.0277 298,214.274794 298,219.51385 Z" id="Shape" fill="#3F3131" fill-rule="nonzero"></path>
                    <path d="M238.5,210 L162.5,210.0277 C157.253295,210.0277 153,214.274794 153,219.51385 C153,224.752906 157.253295,229 162.5,229 L238.5,228.9723 C243.746705,228.9723 248,224.725206 248,219.48615 C248,214.247094 243.746705,210 238.5,210 Z" id="Shape" fill="#3F3131" fill-rule="nonzero"></path>
                    <path d="M181.5,57 L219.5,57 C224.746705,57 229,52.7467051 229,47.5 C229,42.2532949 224.746705,38 219.5,38 L181.5,38 C176.253295,38 172,42.2532949 172,47.5 C172,52.7467051 176.253295,57 181.5,57 Z" id="Shape" fill="#3F3131" fill-rule="nonzero"></path>
                    <path d="M295.625,57 L353.375,56.9906946 C358.690741,56.9906946 363,52.7394828 363,47.4953473 C363,42.2512118 358.690741,38 353.375,38 L295.625,38.0093054 C290.309259,38.0093054 286,42.2605172 286,47.5046527 C286,52.7487882 290.309259,57 295.625,57 Z" id="Shape" fill="#3F3131" fill-rule="nonzero"></path>
                    <path d="M450.460628,266.759756 L427.893145,266.759756 C444.499724,232.184103 445.232395,192.105635 429.90061,156.947629 C425.681172,147.118974 417.527006,139.508689 407.422797,135.96908 C414.477113,121.459675 419.010929,105.858407 420.830576,89.831707 C421.106643,87.1060541 421.354146,85.5988062 421.474865,83.920939 C422.743302,60.3751801 417.854977,36.9050087 407.290391,15.817444 C402.384809,6.04381734 392.339091,-0.0913307248 381.392522,0.00102837984 L85.8492065,0.188711126 C84.5476122,0.191334199 78.261546,0.202975999 76.3186108,0.188711126 C51.2491412,0.207765212 38.1611229,38.5480158 38.1802016,76.4241089 C37.8770013,93.8271416 40.9948189,111.120576 47.3570775,127.325004 C48.3236066,129.573386 49.3437471,131.506994 50.3696111,133.381726 L47.7195736,133.381726 C46.6021273,133.506232 40.3157927,133.397905 38.1611229,133.381154 C24.0717166,134.785452 12.4297058,144.948413 9.15265586,158.696603 C2.80277335,174.909726 -0.299166347,192.209883 0.022713739,209.616171 C-0.279656965,227.016104 2.83815296,244.306324 9.19958957,260.507729 C10.1306271,262.642536 11.1685491,264.729243 12.3094248,266.759946 L9.56208571,266.759946 C4.29363605,266.759946 0.022713739,271.025349 0.022713739,276.286989 C0.022713739,281.54863 4.29363605,285.814032 9.56208571,285.814032 L92.6263579,285.814032 C93.5576855,285.937081 94.4960705,285.999203 95.4355122,286 C95.6733605,286 98.5606104,285.937947 104.097262,285.813842 C104.300187,285.866145 207.05723,285.866145 412.368389,285.813842 L450.460628,285.813842 C455.729078,285.813842 460,281.548439 460,276.286799 C460,271.025158 455.729078,266.759756 450.460628,266.759756 Z M83.9668976,253.194961 C82.0874683,248.561615 80.6207392,243.7718 79.583747,238.881151 L92.6212067,225.860541 C95.3488369,223.135922 96.1647723,219.038759 94.6886267,215.479135 C93.2124811,211.919512 89.7348773,209.598244 85.8770615,209.597498 L76.3458934,209.597498 C76.3726036,174.26684 88.6753408,152.621399 95.3973547,152.621399 C101.16612,155.157363 105.410976,160.2474 106.865015,166.372351 C112.173592,180.219876 114.764089,194.95834 114.495177,209.783656 C114.514256,244.408741 102.770145,265.779423 95.9462502,266.759756 L94.9013074,266.759756 C89.504188,263.980478 85.5332036,259.054233 83.9668976,253.194961 Z M414.904145,171.480752 L362.817266,171.498281 C357.548817,171.498281 353.277895,175.763684 353.277895,181.025324 C353.277895,186.286965 357.548817,190.552367 362.817266,190.552367 L420.053498,190.533313 C423.574108,209.876294 421.71668,229.800465 414.789291,248.205839 C413.987574,247.925633 413.150958,247.75732 412.30314,247.70567 L128.788018,247.70567 C132.007683,235.316296 133.616215,222.564378 133.573921,209.764602 C133.5332,203.348781 133.104292,196.94128 132.28954,190.577138 L200.349525,190.543412 C205.617975,190.543412 209.888897,186.27801 209.888897,181.016369 C209.888897,175.754728 205.617975,171.489326 200.349525,171.489326 L128.691289,171.524195 C127.550804,167.211431 126.116557,162.981543 124.398572,158.864089 C123.467492,156.727985 122.429051,154.640177 121.28721,152.608632 L394.044782,152.435431 C401.959648,152.418472 409.132319,157.087038 412.312489,164.325561 C413.318129,166.71723 414.056477,169.096704 414.904145,171.480752 Z M402.616862,76.2101315 L335.988164,76.2188964 C330.719715,76.2188964 326.448792,80.4842988 326.448792,85.7459394 C326.448792,91.0075799 330.719715,95.2729823 335.988164,95.2729823 L401.139404,95.2647891 C399.862965,101.92415 398.027861,108.464469 395.653502,114.816568 C394.869594,114.544796 394.052489,114.380137 393.224396,114.327068 L109.709274,114.327068 C111.348084,108.065085 112.535784,101.693936 113.263263,95.2625026 L200.349525,95.2451634 C205.617975,95.2451634 209.888897,90.9797609 209.888897,85.7181204 C209.888897,80.4564799 205.617975,76.1910774 200.349525,76.1910774 L114.486974,76.2072734 C114.772354,58.8646263 111.657898,41.6337216 105.319065,25.4852967 C104.387793,23.3510324 103.349877,21.2647815 102.209229,19.2344133 L381.392522,19.0564481 C385.022592,18.9460809 388.401602,20.900121 390.112844,24.0993025 C398.196921,40.2926255 402.473595,58.115704 402.616862,76.2101315 Z M87.7862714,32.9937498 C93.094848,46.8412743 95.6853454,61.5797387 95.4164334,76.4050548 C95.4355122,111.852324 83.0915649,133.567313 76.3567682,133.567313 C70.5880033,131.031348 66.3431474,125.941311 64.8891076,119.81636 C59.580531,105.968835 56.9900336,91.2303709 57.2589456,76.4050548 L66.7983175,76.2188964 C70.6562375,76.2183819 74.1340532,73.8971985 75.6103455,70.3375229 C77.0866378,66.7778473 76.2707389,62.6805459 73.5430351,59.955853 L60.542779,46.9723988 C61.0225987,35.7311246 66.8950446,25.4089691 76.3186108,19.2427971 C82.0873757,21.7787617 86.3322316,26.8687983 87.7862714,32.9937498 Z M38.1611229,152.43524 C43.8001534,154.904763 47.9694625,159.851728 49.4437197,165.82226 L40.9744745,174.280559 C38.246858,177.005319 37.4310701,181.102624 38.907443,184.662251 C40.3838159,188.221878 43.861668,190.542974 47.7195736,190.543412 L55.8452106,190.543412 C56.7519709,196.85197 57.2243247,203.215221 57.2589456,209.588352 C57.2780243,245.035621 44.934077,266.75061 38.1992804,266.75061 C32.4305154,264.214645 28.1856595,259.124608 26.7316197,252.999657 C21.4229718,239.155335 18.8324517,224.419847 19.1014577,209.597498 C18.8166872,194.777379 21.3944912,180.041331 26.6938438,166.195529 C28.0952897,160.042389 32.3568327,154.928703 38.1611229,152.43524 Z" id="Shape" fill="#3F3131" fill-rule="nonzero"></path>
                </g>
            </g>
        </g>
    </g>
</svg>