<?xml version="1.0" ?><!DOCTYPE svg  PUBLIC '-//W3C//DTD SVG 1.1//EN'  'http://www.w3.org/Graphics/SVG/1.1/DTD/svg11.dtd'>
<svg width="24px" height="14px" viewBox="0 0 24 14" version="1.1" xmlns="http://www.w3.org/2000/svg" xmlns:xlink="http://www.w3.org/1999/xlink">
	<g stroke="none" stroke-width="1" fill="none" fill-rule="evenodd">
		<g fill="#000000" fill-rule="nonzero">
			<path d="M20.4,6 C20.8,5.4 21,4.7 21,4 C21,1.8 19.2,0 17,0 L4,0 C1.8,0 0,1.8 0,4 C0,5.2 0.5,6.3 1.4,7 C0.5,7.7 0,8.8 0,10 C0,12.2 1.8,14 4,14 L11,14 L14,14 L20,14 C22.2,14 24,12.2 24,10 C24,7.9 22.4,6.3 20.4,6 Z M14,12 C12.9,12 12,11.1 12,10 C12,8.9 12.9,8 14,8 C15.1,8 16,8.9 16,10 C16,11.1 15.1,12 14,12 Z M17,2 C18.1,2 19,2.9 19,4 C19,5.1 18.1,6 17,6 C15.9,6 15,5.1 15,4 C15,2.9 15.9,2 17,2 Z M2,4 C2,2.9 2.9,2 4,2 L13.6,2 C13.3,2.6 13,3.3 13,4 C13,4.7 13.2,5.4 13.6,6 L11,6 L4,6 C2.9,6 2,5.1 2,4 Z M10.6,12 L4,12 C2.9,12 2,11.1 2,10 C2,8.9 2.9,8 4,8 L10.6,8 C10.3,8.6 10,9.3 10,10 C10,10.7 10.2,11.4 10.6,12 Z M20,12 C18.9,12 18,11.1 18,10 C18,8.9 18.9,8 20,8 C21.1,8 22,8.9 22,10 C22,11.1 21.1,12 20,12 Z"></path>
			<path d="M12,3 L3.5,3 C3.2,3 3,3.2 3,3.5 C3,3.8 3.2,4 3.5,4 L12,4 L12,3 Z"></path>
			<path d="M3,9.5 C3,9.8 3.2,10 3.5,10 L9,10 L9,9 L3.5,9 C3.2,9 3,9.2 3,9.5 Z"></path>
		</g>
	</g>
</svg>